<svg width="26" height="26" viewBox="0 0 26 26" fill="none" xmlns="http://www.w3.org/2000/svg">
<path fill-rule="evenodd" clip-rule="evenodd" d="M10.5625 8.9375C10.5625 5.34765 13.4726 2.4375 17.0625 2.4375C20.6523 2.4375 23.5625 5.34765 23.5625 8.9375C23.5625 12.5274 20.6523 15.4375 17.0625 15.4375C16.3399 15.4375 15.6473 15.3201 15.0011 15.1042C14.563 14.9578 14.0797 15.0717 13.7531 15.3983L12.0889 17.0625H10.1562C9.48316 17.0625 8.9375 17.6082 8.9375 18.2812V20.2139L8.83893 20.3125H6.90625C6.23316 20.3125 5.6875 20.8582 5.6875 21.5312V23.4639L5.58893 23.5625H2.84375C2.61939 23.5625 2.4375 23.3807 2.4375 23.1562V20.4111L10.6017 12.2469C10.9283 11.9203 11.0422 11.437 10.8958 10.9989C10.6799 10.3527 10.5625 9.66007 10.5625 8.9375ZM17.0625 0C12.1264 0 8.125 4.00145 8.125 8.9375C8.125 9.65692 8.21025 10.3577 8.37156 11.0299L0.356964 19.0445C0.128404 19.273 0 19.583 0 19.9062V23.1562C0 24.7268 1.27319 26 2.84375 26H6.09375C6.41698 26 6.72698 25.8716 6.95554 25.643L7.76804 24.8305C7.99659 24.602 8.125 24.292 8.125 23.9688V22.75H9.34375C9.66698 22.75 9.97698 22.6216 10.2055 22.393L11.018 21.5805C11.2466 21.352 11.375 21.042 11.375 20.7188V19.5H12.5938C12.917 19.5 13.227 19.3716 13.4555 19.143L14.9701 17.6285C15.6423 17.7897 16.3431 17.875 17.0625 17.875C21.9986 17.875 26 13.8736 26 8.9375C26 4.00145 21.9986 0 17.0625 0ZM17.875 9.75C18.7725 9.75 19.5 9.02246 19.5 8.125C19.5 7.22754 18.7725 6.5 17.875 6.5C16.9775 6.5 16.25 7.22754 16.25 8.125C16.25 9.02246 16.9775 9.75 17.875 9.75Z" fill="white"/>
</svg>
