<svg width="28" height="28" viewBox="0 0 28 28" fill="none" xmlns="http://www.w3.org/2000/svg">
<path d="M25.668 19.8307H2.33464C2.02522 19.8307 1.72847 19.9536 1.50968 20.1724C1.29089 20.3912 1.16797 20.688 1.16797 20.9974C1.16797 21.3068 1.29089 21.6036 1.50968 21.8224C1.72847 22.0411 2.02522 22.1641 2.33464 22.1641H25.668C25.9774 22.1641 26.2741 22.0411 26.4929 21.8224C26.7117 21.6036 26.8346 21.3068 26.8346 20.9974C26.8346 20.688 26.7117 20.3912 26.4929 20.1724C26.2741 19.9536 25.9774 19.8307 25.668 19.8307ZM25.668 24.4974H2.33464C2.02522 24.4974 1.72847 24.6203 1.50968 24.8391C1.29089 25.0579 1.16797 25.3546 1.16797 25.6641C1.16797 25.9735 1.29089 26.2702 1.50968 26.489C1.72847 26.7078 2.02522 26.8307 2.33464 26.8307H25.668C25.9774 26.8307 26.2741 26.7078 26.4929 26.489C26.7117 26.2702 26.8346 25.9735 26.8346 25.6641C26.8346 25.3546 26.7117 25.0579 26.4929 24.8391C26.2741 24.6203 25.9774 24.4974 25.668 24.4974ZM7.0013 8.16406C6.77056 8.16406 6.54499 8.23249 6.35314 8.36068C6.16128 8.48888 6.01174 8.67108 5.92344 8.88426C5.83514 9.09745 5.81204 9.33202 5.85705 9.55833C5.90207 9.78465 6.01318 9.99253 6.17634 10.1557C6.33951 10.3188 6.54739 10.43 6.7737 10.475C7.00001 10.52 7.23459 10.4969 7.44777 10.4086C7.66095 10.3203 7.84315 10.1708 7.97135 9.97889C8.09954 9.78704 8.16797 9.56147 8.16797 9.33073C8.16797 9.02131 8.04505 8.72456 7.82626 8.50577C7.60747 8.28698 7.31072 8.16406 7.0013 8.16406ZM23.3346 1.16406H4.66797C3.73971 1.16406 2.84947 1.53281 2.19309 2.18919C1.53672 2.84557 1.16797 3.7358 1.16797 4.66406V13.9974C1.16797 14.9257 1.53672 15.8159 2.19309 16.4723C2.84947 17.1286 3.73971 17.4974 4.66797 17.4974H23.3346C24.2629 17.4974 25.1531 17.1286 25.8095 16.4723C26.4659 15.8159 26.8346 14.9257 26.8346 13.9974V4.66406C26.8346 3.7358 26.4659 2.84557 25.8095 2.18919C25.1531 1.53281 24.2629 1.16406 23.3346 1.16406ZM24.5013 13.9974C24.5013 14.3068 24.3784 14.6036 24.1596 14.8224C23.9408 15.0411 23.6441 15.1641 23.3346 15.1641H4.66797C4.35855 15.1641 4.0618 15.0411 3.84301 14.8224C3.62422 14.6036 3.5013 14.3068 3.5013 13.9974V4.66406C3.5013 4.35464 3.62422 4.0579 3.84301 3.8391C4.0618 3.62031 4.35855 3.4974 4.66797 3.4974H23.3346C23.6441 3.4974 23.9408 3.62031 24.1596 3.8391C24.3784 4.0579 24.5013 4.35464 24.5013 4.66406V13.9974ZM14.0013 5.83073C13.3091 5.83073 12.6324 6.036 12.0568 6.42059C11.4812 6.80517 11.0326 7.3518 10.7677 7.99134C10.5028 8.63088 10.4335 9.33461 10.5686 10.0135C10.7036 10.6925 11.0369 11.3161 11.5264 11.8056C12.0159 12.2951 12.6396 12.6284 13.3185 12.7635C13.9974 12.8985 14.7012 12.8292 15.3407 12.5643C15.9802 12.2994 16.5269 11.8508 16.9114 11.2752C17.296 10.6997 17.5013 10.023 17.5013 9.33073C17.5013 8.40247 17.1326 7.51223 16.4762 6.85586C15.8198 6.19948 14.9296 5.83073 14.0013 5.83073ZM14.0013 10.4974C13.7706 10.4974 13.545 10.429 13.3531 10.3008C13.1613 10.1726 13.0117 9.99037 12.9234 9.77719C12.8351 9.56401 12.812 9.32943 12.8571 9.10312C12.9021 8.87681 13.0132 8.66893 13.1763 8.50577C13.3395 8.34261 13.5474 8.2315 13.7737 8.18648C14 8.14146 14.2346 8.16457 14.4478 8.25287C14.6609 8.34117 14.8432 8.49071 14.9713 8.68256C15.0995 8.87442 15.168 9.09998 15.168 9.33073C15.168 9.64015 15.0451 9.93689 14.8263 10.1557C14.6075 10.3745 14.3107 10.4974 14.0013 10.4974ZM21.0013 8.16406C20.7706 8.16406 20.545 8.23249 20.3531 8.36068C20.1613 8.48888 20.0117 8.67108 19.9234 8.88426C19.8351 9.09745 19.812 9.33202 19.8571 9.55833C19.9021 9.78465 20.0132 9.99253 20.1763 10.1557C20.3395 10.3188 20.5474 10.43 20.7737 10.475C21 10.52 21.2346 10.4969 21.4478 10.4086C21.6609 10.3203 21.8432 10.1708 21.9713 9.97889C22.0995 9.78704 22.168 9.56147 22.168 9.33073C22.168 9.02131 22.0451 8.72456 21.8263 8.50577C21.6075 8.28698 21.3107 8.16406 21.0013 8.16406Z" fill="white"/>
</svg>
