<svg width="28" height="24" viewBox="0 0 28 24" fill="none" xmlns="http://www.w3.org/2000/svg">
<path d="M23.3346 5.33333H22.0013V4C22.0013 2.93913 21.5799 1.92172 20.8297 1.17157C20.0796 0.421427 19.0622 0 18.0013 0H4.66797C3.6071 0 2.58969 0.421427 1.83954 1.17157C1.0894 1.92172 0.667969 2.93913 0.667969 4V20C0.667969 21.0609 1.0894 22.0783 1.83954 22.8284C2.58969 23.5786 3.6071 24 4.66797 24H23.3346C24.3955 24 25.4129 23.5786 26.1631 22.8284C26.9132 22.0783 27.3346 21.0609 27.3346 20V9.33333C27.3346 8.27247 26.9132 7.25505 26.1631 6.50491C25.4129 5.75476 24.3955 5.33333 23.3346 5.33333ZM4.66797 2.66667H18.0013C18.3549 2.66667 18.6941 2.80714 18.9441 3.05719C19.1942 3.30724 19.3346 3.64638 19.3346 4V5.33333H4.66797C4.31435 5.33333 3.97521 5.19286 3.72516 4.94281C3.47511 4.69276 3.33464 4.35362 3.33464 4C3.33464 3.64638 3.47511 3.30724 3.72516 3.05719C3.97521 2.80714 4.31435 2.66667 4.66797 2.66667ZM24.668 16H23.3346C22.981 16 22.6419 15.8595 22.3918 15.6095C22.1418 15.3594 22.0013 15.0203 22.0013 14.6667C22.0013 14.313 22.1418 13.9739 22.3918 13.7239C22.6419 13.4738 22.981 13.3333 23.3346 13.3333H24.668V16ZM24.668 10.6667H23.3346C22.2738 10.6667 21.2564 11.0881 20.5062 11.8382C19.7561 12.5884 19.3346 13.6058 19.3346 14.6667C19.3346 15.7275 19.7561 16.7449 20.5062 17.4951C21.2564 18.2452 22.2738 18.6667 23.3346 18.6667H24.668V20C24.668 20.3536 24.5275 20.6928 24.2774 20.9428C24.0274 21.1929 23.6883 21.3333 23.3346 21.3333H4.66797C4.31435 21.3333 3.97521 21.1929 3.72516 20.9428C3.47511 20.6928 3.33464 20.3536 3.33464 20V7.77333C3.76299 7.92402 4.21388 8.00067 4.66797 8H23.3346C23.6883 8 24.0274 8.14048 24.2774 8.39052C24.5275 8.64057 24.668 8.97971 24.668 9.33333V10.6667Z" fill="white"/>
</svg>
