<svg width="22" height="24" viewBox="0 0 22 24" fill="none" xmlns="http://www.w3.org/2000/svg">
<path d="M5.09375 4.83594C4.97344 4.83594 4.875 4.93437 4.875 5.05469V6.36719C4.875 6.4875 4.97344 6.58594 5.09375 6.58594H15.5938C15.7141 6.58594 15.8125 6.4875 15.8125 6.36719V5.05469C15.8125 4.93437 15.7141 4.83594 15.5938 4.83594H5.09375ZM10.125 8.77344H5.09375C4.97344 8.77344 4.875 8.87187 4.875 8.99219V10.3047C4.875 10.425 4.97344 10.5234 5.09375 10.5234H10.125C10.2453 10.5234 10.3438 10.425 10.3438 10.3047V8.99219C10.3438 8.87187 10.2453 8.77344 10.125 8.77344ZM8.8125 21.2969H2.6875V2.04688H18V10.7969C18 10.9172 18.0984 11.0156 18.2188 11.0156H19.75C19.8703 11.0156 19.9688 10.9172 19.9688 10.7969V0.953125C19.9688 0.469141 19.5777 0.078125 19.0938 0.078125H1.59375C1.10977 0.078125 0.71875 0.469141 0.71875 0.953125V22.3906C0.71875 22.8746 1.10977 23.2656 1.59375 23.2656H8.8125C8.93281 23.2656 9.03125 23.1672 9.03125 23.0469V21.5156C9.03125 21.3953 8.93281 21.2969 8.8125 21.2969ZM20.8438 18.8906H16.9062V17.8898C18.1723 17.5125 19.0938 16.3422 19.0938 14.9531C19.0938 13.2605 17.7238 11.8906 16.0312 11.8906C14.3387 11.8906 12.9688 13.2605 12.9688 14.9531C12.9688 16.3395 13.8902 17.5125 15.1562 17.8898V18.8906H11.2188C10.9781 18.8906 10.7812 19.0875 10.7812 19.3281V23.4844C10.7812 23.725 10.9781 23.9219 11.2188 23.9219H20.8438C21.0844 23.9219 21.2812 23.725 21.2812 23.4844V19.3281C21.2812 19.0875 21.0844 18.8906 20.8438 18.8906ZM14.6641 14.9531C14.6641 14.1984 15.2766 13.5859 16.0312 13.5859C16.7859 13.5859 17.3984 14.1984 17.3984 14.9531C17.3984 15.7078 16.7859 16.3203 16.0312 16.3203C15.2766 16.3203 14.6641 15.7078 14.6641 14.9531ZM19.5859 22.2266H12.4766V20.5859H19.5859V22.2266Z" fill="white"/>
</svg>
