<svg width="26" height="28" viewBox="0 0 26 28" fill="none" xmlns="http://www.w3.org/2000/svg">
<path d="M25.9395 24.5444C25.8574 20.0462 25.8184 15.5462 25.64 11.0515C25.4656 6.67296 22.9672 3.58546 18.3866 1.78367C15.9764 0.835458 13.4123 0.937243 10.8687 1.06046C5.12101 1.34081 0.234853 5.75331 0.115879 10.7676C0.0625458 13.0462 0.107674 15.3265 0.107674 17.6069C0.105623 17.6069 0.103571 17.6069 0.10152 17.6069C0.10152 19.9676 0.10152 22.4908 0.10152 24.8194C0.10152 26.6605 1.23793 27.2122 2.88921 26.9765C4.11383 26.8015 4.95075 25.898 5.03075 24.6622C5.1169 23.3247 6.21434 22.339 7.62973 22.3283C9.03896 22.3176 10.122 23.2462 10.2492 24.5658C10.2718 24.789 10.2964 25.0122 10.3497 25.2301C10.6061 26.2622 11.6564 27.0051 12.8584 27.014C14.0892 27.023 15.1641 26.2712 15.4123 25.2069C15.4779 24.9283 15.4943 24.6426 15.5313 24.3587C15.6646 23.3372 16.5733 22.5105 17.7405 22.3462C18.8502 22.1908 19.9866 22.748 20.4749 23.6819C20.6718 24.0605 20.7169 24.4587 20.7456 24.8676C20.8297 26.0283 21.8738 26.9355 23.1784 27.0069C24.7538 27.0944 25.9661 26.039 25.9395 24.5444ZM10.6184 14.2944C9.25024 15.8658 7.1087 15.8783 5.70152 14.3319C4.10973 12.5837 4.14049 9.5801 5.76921 7.85867C7.07793 6.47474 9.06357 6.43189 10.4236 7.77831C11.3938 8.74081 11.7302 9.9051 11.7631 11.123C11.7302 12.2997 11.4225 13.3694 10.6184 14.2944ZM19.722 14.6855C18.44 15.7658 16.7518 15.7444 15.4923 14.6283C14.5672 13.8087 14.0092 12.4819 14.0133 10.923C14.0708 9.79974 14.4318 8.5801 15.5313 7.61403C16.7641 6.5301 18.4543 6.52117 19.7097 7.57653C21.7569 9.30153 21.7631 12.9676 19.722 14.6855Z" fill="white"/>
</svg>
