<svg width="68" height="68" viewBox="0 0 68 68" fill="none" xmlns="http://www.w3.org/2000/svg">
<path fill-rule="evenodd" clip-rule="evenodd" d="M33.9411 54.9414C45.5391 54.9414 54.9411 45.5394 54.9411 33.9414C54.9411 22.3434 45.5391 12.9414 33.9411 12.9414C22.3431 12.9414 12.9411 22.3434 12.9411 33.9414C12.9411 45.5394 22.3431 54.9414 33.9411 54.9414ZM33.9411 57.9414C47.196 57.9414 57.9411 47.1962 57.9411 33.9414C57.9411 20.6866 47.196 9.94141 33.9411 9.94141C20.6863 9.94141 9.94112 20.6866 9.94113 33.9414C9.94113 47.1962 20.6863 57.9414 33.9411 57.9414Z" fill="#FFFFFF"/>
<path d="M34 21.9414V45.9414" stroke="#FFFFFF" stroke-width="4"/>
<path d="M22 33.9414L46 33.9414" stroke="#FFFFFF" stroke-width="4"/>
</svg>
